<svg width="1200" height="750" viewBox="0 0 1200 750" fill="none" xmlns="http://www.w3.org/2000/svg">
  <rect width="1200" height="750" rx="40" fill="#020617"/>
  <rect x="54" y="54" width="1092" height="642" rx="28" fill="url(#paint0_linear)"/>
  <rect x="116" y="118" width="968" height="84" rx="20" fill="#0F172A" fill-opacity="0.92"/>
  <rect x="148" y="145" width="180" height="28" rx="14" fill="#34D399"/>
  <rect x="116" y="244" width="280" height="370" rx="24" fill="#0F172A"/>
  <rect x="430" y="244" width="654" height="168" rx="24" fill="#082F49"/>
  <rect x="430" y="446" width="315" height="168" rx="24" fill="#0F172A"/>
  <rect x="769" y="446" width="315" height="168" rx="24" fill="#0F172A"/>
  <circle cx="1014" cy="160" r="18" fill="#22D3EE"/>
  <path d="M196 414H316" stroke="#34D399" stroke-width="20" stroke-linecap="round"/>
  <path d="M468 316H815" stroke="#A7F3D0" stroke-width="24" stroke-linecap="round"/>
  <path d="M468 360H967" stroke="#67E8F9" stroke-opacity="0.7" stroke-width="18" stroke-linecap="round"/>
  <path d="M468 504H674" stroke="#E2E8F0" stroke-opacity="0.8" stroke-width="20" stroke-linecap="round"/>
  <path d="M807 504H999" stroke="#E2E8F0" stroke-opacity="0.8" stroke-width="20" stroke-linecap="round"/>
  <defs>
    <linearGradient id="paint0_linear" x1="130" y1="100" x2="1042" y2="660" gradientUnits="userSpaceOnUse">
      <stop stop-color="#0F172A"/>
      <stop offset="1" stop-color="#083344"/>
    </linearGradient>
  </defs>
</svg>
